# AST/ASF file generated using VICON BodyLanguage
# -----------------------------------------------
:version 1.10
:name VICON
:units
  mass 1.0
  length 0.45
  angle deg
:documentation
   .ast/.asf automatically generated from VICON data using
   VICON BodyBuilder and BodyLanguage model FoxedUp or BRILLIANT.MOD
:root
   order TX TY TZ RX RY RZ
   axis XYZ
   position 0 0 0  
   orientation 0 0 0 
:bonedata
  begin
     id 1 
     name lhipjoint
     direction 0.677091 -0.635792 0.370561 
     length 2.74323 
     axis 0 0 0  XYZ
  end
  begin
     id 2 
     name lfemur
     direction 0.34202 -0.939693 0  
     length 7.44995  
     axis 0 0 20  XYZ
    dof rx ry rz
    limits (-160.0 20.0)
           (-70.0 70.0)
           (-60.0 70.0)
  end
  begin
     id 3 
     name ltibia
     direction 0.34202 -0.939693 0   
     length 7.34467   
     axis 0 0 20   XYZ
    dof rx
    limits (-10.0 170.0)
  end
  begin
     id 4 
     name lfoot
     direction 0.101953 -0.280114 0.954537   
     length 1.72105   
     axis -90 7.62852e-016 20   XYZ
    dof rx rz
    limits (-45.0 90.0)
           (-70.0 20.0)
  end
  begin
     id 5 
     name ltoes
     direction 1.53537e-011 -4.21915e-011 1   
     length 0.865872   
     axis -90 7.62852e-016 20   XYZ
    dof rx
    limits (-90.0 20.0)
  end
  begin
     id 6 
     name rhipjoint
     direction -0.695735 -0.620586 0.361699   
     length 2.81045  
     axis 0 0 0  XYZ 
  end
  begin
     id 7 
     name rfemur
     direction -0.34202 -0.939693 0   
     length 7.29387   
     axis 0 0 -20   XYZ
    dof rx ry rz
    limits (-160.0 20.0)
           (-70.0 70.0)
           (-70.0 60.0)
  end
  begin
     id 8 
     name rtibia
     direction -0.34202 -0.939693 0   
     length 7.44935   
     axis 0 0 -20   XYZ
    dof rx
    limits (-10.0 170.0)
 end
 begin
     id 9 
     name rfoot
     direction -0.104163 -0.286184 0.952496   
     length 1.77731  
     axis -90 -7.62852e-016 -20   XYZ
    dof rx rz
    limits (-45.0 90.0)
           (-20.0 70.0)
  end
  begin
     id 10 
     name rtoes
     direction -1.5355e-011 -4.21888e-011 1   
     length 0.892424   
     axis -90 -7.62852e-016 -20   XYZ
    dof rx
    limits (-90.0 20.0)
  end
  begin
     id 11 
     name lowerback
     direction 0.0100202 0.997226 -0.0737589   
     length 2.16892   
     axis 0 0 0   XYZ
    dof rx ry rz
    limits (-20.0 45.0)
           (-30.0 30.0)
           (-30.0 30.0)
  end
  begin
     id 12 
     name upperback
     direction 0.00432398 0.999988 -0.00215019   
     length 2.17326   
     axis 0 0 0   XYZ
    dof rx ry rz
    limits (-20.0 45.0)
           (-30.0 30.0)
           (-30.0 30.0)
  end
  begin
     id 13 
     name thorax
     direction -0.00195047 0.999485 0.0320434   
     length 2.18139   
     axis 0 0 0   XYZ
    dof rx ry rz
    limits (-20.0 45.0)
           (-30.0 30.0)
           (-30.0 30.0)
  end
  begin
     id 14 
     name lowerneck
     direction 0.00782762 0.986241 0.165128   
     length 1.88415   
     axis 0 0 0   XYZ
    dof rx ry rz
    limits (-20.0 45.0)
           (-30.0 30.0)
           (-30.0 30.0)
  end
  begin
     id 15 
     name upperneck
     direction 0.00988667 0.981098 -0.193258   
     length 1.9242   
     axis 0 0 0   XYZ
    dof rx ry rz
    limits (-20.0 45.0)
           (-30.0 30.0)
           (-30.0 30.0)
  end
  begin
     id 16
     name head
     direction 0.00252199 0.996513 -0.0833958  
     length 1.93887  
     axis 0 0 0   XYZ
    dof rx ry rz
    limits (-20.0 45.0)
           (-30.0 30.0)
           (-30.0 30.0)
  end
  begin
     id 17 
     name lclavicle
     direction 0.929492 0.368193 -0.0218667  
     length 3.5955  
     axis 0 0 0   XYZ
    dof ry rz
    limits (-20.0 10.0)
           (0.0 20.0)
  end
  begin
     id 18 
     name lhumerus
     direction 1 -4.48972e-011 1.41911e-027   
     length 5.2795   
     axis 180 -30 -90   XYZ
    dof rx ry rz
    limits (-60.0 90.0)
           (-90.0 90.0)
           (-90.0 90.0)
  end
  begin
     id 19
     name lradius
     direction 1 -4.48963e-011 7.05772e-027   
     length 3.53504   
     axis 180 -30 -90   XYZ
    dof rx
    limits (-10.0 170.0)
  end
  begin
     id 20
     name lwrist
     direction 1 -4.48957e-011 9.54866e-027   
     length 1.76752   
     axis -7.69462e-015 90 90   XYZ
    dof ry
    limits (-180.0 0.0)
 end
  begin
     id 21 
     name lhand
     direction 1 -4.48979e-011 1.90973e-026   
     length 0.667948   
     axis -1.21857e-014 90 90   XYZ
    dof rx rz
    limits (-90.0 90.0)
           (-45.0 45.0)
  end
  begin
     id 22 
     name lfingers
     direction 1 -4.48987e-011 3.81946e-026   
     length 0.538517   
     axis -2.43714e-014 90 90   XYZ
    dof rx
    limits (0.0 90.0)
  end
  begin
     id 23
     name lthumb
     direction 0.707107 -6.34962e-011 0.707107   
     length 0.773206   
     axis -90 45 2.85299e-015   XYZ
    dof rx rz
    limits (-45.0 45.0)
           (-45.0 45.0)
  end
  begin
     id 24 
     name rclavicle
     direction -0.898763 0.414256 -0.143584   
     length 3.5176  
     axis 0 0 0   XYZ 
    dof ry rz
    limits (-10.0 20.0)
           (-20.0 0.0)
  end
  begin
     id 25 
     name rhumerus
     direction -1 -4.48971e-011 1.129e-027  
     length 5.25035   
     axis 180 30 90   XYZ
    dof rx ry rz
    limits (-90.0 60.0)
           (-90.0 90.0)
           (-90.0 90.0)
  end
  begin
     id 26 
     name rradius
     direction -1 -4.48955e-011 6.34664e-027   
     length 3.58884   
     axis 180 30 90   XYZ
    dof rx
    limits (-10.0 170.0)
  end
  begin
     id 27 
     name rwrist
     direction -1 -4.48966e-011 9.54866e-027   
     length 1.79442   
     axis -7.69462e-015 -90 -90   XYZ
    dof ry
    limits (-180.0 0.0)
  end
  begin
     id 28
     name rhand
     direction -1 -4.48973e-011 1.90973e-026   
     length 0.779235   
     axis -1.21857e-014 -90 -90   XYZ
    dof rx rz
    limits (-90.0 90.0)
           (-45.0 45.0)
  end
  begin
     id 29
     name rfingers
     direction -1 -4.48984e-011 3.81946e-026   
     length 0.62824   
     axis -2.43714e-014 -90 -90   XYZ
    dof rx
    limits (0.0 90.0)
  end
  begin
     id 30
     name rthumb
     direction -0.707107 -6.34968e-011 0.707107   
     length 0.90203   
     axis -90 -45 -2.85299e-015   XYZ
    dof rx rz
    limits (-45.0 45.0)
           (-45.0 45.0)
  end
:hierarchy
  begin
    root lhipjoint rhipjoint lowerback
    lhipjoint lfemur
    lfemur ltibia
    ltibia lfoot
    lfoot ltoes
    rhipjoint rfemur
    rfemur rtibia
    rtibia rfoot
    rfoot rtoes
    lowerback upperback
    upperback thorax
    thorax lowerneck lclavicle rclavicle
    lowerneck upperneck
    upperneck head
    lclavicle lhumerus
    lhumerus lradius
    lradius lwrist
    lwrist lhand lthumb
    lhand lfingers
    rclavicle rhumerus
    rhumerus rradius
    rradius rwrist
    rwrist rhand rthumb
    rhand rfingers
  end

#!OML:ASF I:\Random Stuff\random\construction\7_22_03\Session 2\subj1.ASF
:FULLY-SPECIFIED
:DEGREES
173
root -22.9596 17.639 -0.686086 -144.79 71.7074 -151.7
lowerback 3.0359 1.60612 1.08037
upperback -1.43965 2.27622 1.94827
thorax -3.22023 1.14446 1.26614
lowerneck -23.3489 -0.434802 1.1117
upperneck 38.161 -1.15002 3.43623
head 18.289 0.723424 1.32791
rclavicle 5.08889e-014 -1.07344e-014
rhumerus -39.6737 -3.45946 -77.6488
rradius 50.7601
rwrist 0.615024
rhand -18.7332 20.8988
rfingers 7.12502
rthumb 7.56268 -8.94598
lclavicle 5.08889e-014 -1.07344e-014
lhumerus -35.355 -6.95183 91.9086
lradius 47.2648
lwrist 38.0669
lhand -25.6742 54.0594
lfingers 7.12502
lthumb 0.860447 84.0374
rfemur 4.8732 1.61641 23.9816
rtibia 7.14089
rfoot -4.54683 -25.5653
rtoes -19.7143
lfemur -16.4566 -4.34473 -14.839
ltibia 29.0665
lfoot -20.4501 9.76487
ltoes -13.0618
174
root -22.9119 17.642 -0.726601 -145.184 71.3934 -152.147
lowerback 2.95323 1.53002 1.01259
upperback -1.43002 2.17136 1.98914
thorax -3.16615 1.09453 1.35468
lowerneck -23.2876 -0.466607 1.00934
upperneck 38.2688 -1.16756 3.51856
head 18.3373 0.720411 1.38615
rclavicle 1.49089e-014 -4.77083e-015
rhumerus -40.1097 -5.94254 -76.3581
rradius 46.1682
rwrist 1.92622
rhand -18.2692 22.1587
rfingers 7.12502
rthumb 8.01056 -7.66945
lclavicle 1.49089e-014 -4.77083e-015
lhumerus -36.1963 -6.95352 92.4427
lradius 42.7965
lwrist 37.5739
lhand -26.1846 54.7674
lfingers 7.12502
lthumb 0.367426 84.7468
rfemur 4.46539 1.39728 23.9353
rtibia 8.21344
rfoot -4.74419 -25.5591
rtoes -19.5453
lfemur -16.31 -3.7948 -14.9248
ltibia 28.9216
lfoot -20.6372 9.02168
ltoes -14.0635
175
root -22.8625 17.6408 -0.771004 -145.368 71.1339 -152.268
lowerback 2.93538 1.44526 0.982945
upperback -1.3524 2.05886 2.08772
thorax -3.07882 1.04081 1.48064
lowerneck -23.172 -0.382131 0.963338
upperneck 38.2993 -1.0345 3.60562
head 18.3227 0.782366 1.46548
rclavicle 2.47984e-014 9.14409e-015
rhumerus -40.135 -8.35375 -74.5046
rradius 40.8226
rwrist 3.64316
rhand -17.6624 23.5789
rfingers 7.12502
rthumb 8.59612 -6.22614
lclavicle 2.47984e-014 9.14409e-015
lhumerus -36.9947 -6.09302 92.4853
lradius 38.5045
lwrist 36.5255
lhand -26.2139 54.8686
lfingers 7.12502
lthumb 0.339146 84.8481
rfemur 4.00845 1.27516 23.8929
rtibia 9.50892
rfoot -4.48574 -25.6062
rtoes -20.4612
lfemur -15.9803 -3.63223 -14.9547
ltibia 28.7237
lfoot -20.8736 8.70551
ltoes -14.5947
176
root -22.8132 17.6418 -0.814603 -145.508 70.9022 -152.383
lowerback 2.92498 1.29132 0.857445
upperback -1.26685 1.85188 2.23488
thorax -2.98963 0.942462 1.71532
lowerneck -23.1373 -0.25596 0.893749
upperneck 38.3515 -0.803594 3.61704
head 18.3374 0.865665 1.53544
rclavicle 7.52897e-014 -3.18055e-015
rhumerus -40.1317 -10.9752 -72.0799
rradius 35.5657
rwrist 5.87497
rhand -16.7832 24.7444
rfingers 7.12502
rthumb 9.44458 -5.02396
lclavicle 7.52897e-014 -3.18055e-015
lhumerus -37.6328 -3.93488 91.6382
lradius 34.486
lwrist 34.4196
lhand -24.3742 53.8133
lfingers 7.12502
lthumb 2.11601 83.7826
rfemur 3.4127 1.17794 23.8258
rtibia 10.9561
rfoot -4.10055 -25.469
rtoes -21.6454
lfemur -15.6836 -3.78 -14.9871
ltibia 28.5514
lfoot -20.9511 8.74447
ltoes -15.2763
177
root -22.7694 17.6431 -0.85383 -146 70.672 -152.943
lowerback 2.9937 1.1148 0.576711
upperback -1.23302 1.60796 2.32491
thorax -2.99782 0.827225 1.97812
lowerneck -23.1293 -0.158174 0.864727
upperneck 38.3836 -0.641122 3.62973
head 18.3494 0.927048 1.58309
rclavicle 2.4699e-014 -2.8625e-014
rhumerus -40.4527 -14.2349 -68.9542
rradius 30.7393
rwrist 8.4604
rhand -16.9463 25.7105
rfingers 7.12502
rthumb 9.28716 -4.06493
lclavicle 2.4699e-014 -2.8625e-014
lhumerus -38.5423 -1.74915 90.4121
lradius 30.9968
lwrist 32.97
lhand -23.9019 54.2371
lfingers 7.12502
lthumb 2.57206 84.2013
rfemur 2.70839 0.354974 23.5973
rtibia 12.4315
rfoot -3.73751 -24.5339
rtoes -22.2666
lfemur -15.5574 -3.8097 -15.1483
ltibia 28.4791
lfoot -21.0521 8.63696
ltoes -16.2011
